<?xml version="1.0" encoding="UTF-8"?>
<svg id="Layer_1" xmlns="http://www.w3.org/2000/svg" version="1.1" viewBox="0 0 180 180">
  <style>
    path { fill: #000; }
  </style>
  <path id="Path_5" d="M100.8,43.9c-12.4-1-29.4,7.1-28.5,26.6.2,4.3,1.1,9.8,2.9,16.7,3.5,13.2,1.1,22.6-5.4,22.6s-7.8-7.6-7-13.1c1.4-9.7,6.7-24,6.7-40.3v-10.5h-22.8v90.2h22.8v-14.7c16.4,0,20.5-12.1,12.9-29-1.6-3.5-2.8-6.6-3.7-9.3-2.9-8.3,3.2-17.1,12-17.2h.2c11.9,0,19.6,8,19.6,20.2v49.9h23v-56.5c0-18.6-14.1-34.3-32.6-35.8"/>
</svg>
