<svg xmlns="http://www.w3.org/2000/svg" width="44.642" height="41.018" viewBox="0 0 44.642 41.018">
  <g id="SVGRepo_iconCarrier" transform="translate(2.5 2.5)">
    <g id="briefcase_alternatif" data-name="briefcase alternatif">
      <path id="Path_585" data-name="Path 585" d="M21.321,22.485h0a6.5,6.5,0,0,1-3.342-.925L1.5,11.688V9.8A3.606,3.606,0,0,1,5.106,6.27H37.536a3.606,3.606,0,0,1,3.606,3.606v1.888l-16.48,9.873a6.494,6.494,0,0,1-3.341.849Z" transform="translate(-1.5 0.922)" fill="none" stroke="#020202" stroke-width="5"/>
      <line id="Line_34" data-name="Line 34" y2="3.606" transform="translate(19.821 21.614)" fill="none" stroke="#020202" stroke-linecap="square" stroke-width="5"/>
      <path id="Path_586" data-name="Path 586" d="M22.6,9.652H8.18L9.992,2.46h10.8Z" transform="translate(4.43 -2.46)" fill="none" stroke="#020202" stroke-linecap="square" stroke-width="5"/>
      <rect id="Rectangle_339" data-name="Rectangle 339" width="39.642" height="28.825" rx="1.91" transform="translate(0 7.192)" fill="none" stroke="#020202" stroke-width="5"/>
    </g>
  </g>
</svg>
