<svg id="SVGRepo_iconCarrier" xmlns="http://www.w3.org/2000/svg" width="44.317" height="44.317" viewBox="0 0 44.317 44.317">
  <g id="Group_456" data-name="Group 456">
    <g id="Group_455" data-name="Group 455">
      <g id="Group_454" data-name="Group 454">
        <path id="Path_587" data-name="Path 587" d="M36.931,20.312v-5.54h5.54a1.847,1.847,0,0,0,1.847-1.847V1.847A1.847,1.847,0,0,0,42.471,0H1.847A1.847,1.847,0,0,0,0,1.847V42.471a1.847,1.847,0,0,0,1.847,1.847H42.471a1.847,1.847,0,0,0,1.847-1.847V35.085a1.847,1.847,0,0,0-1.847-1.847H16.619V14.772h5.54v5.54a1.847,1.847,0,0,0,1.847,1.847H35.085A1.847,1.847,0,0,0,36.931,20.312ZM14.772,11.079a1.847,1.847,0,0,0-1.847,1.847V35.085a1.847,1.847,0,0,0,1.847,1.847H40.624v3.693H3.693V33.238H7.386a1.847,1.847,0,0,0,0-3.693H3.693V25.852H7.386a1.847,1.847,0,0,0,0-3.693H3.693V18.466H7.386a1.847,1.847,0,0,0,0-3.693H3.693V3.693H40.624v7.386Zm18.466,7.386H25.852V14.773h7.386Z"/>
        <path id="Path_588" data-name="Path 588" d="M277.333,279.18v3.693a1.847,1.847,0,0,0,3.693,0V279.18a1.847,1.847,0,0,0-3.693,0Z" transform="translate(-253.328 -253.329)"/>
        <path id="Path_589" data-name="Path 589" d="M362.667,279.18v3.693a1.847,1.847,0,0,0,3.693,0V279.18a1.847,1.847,0,0,0-3.693,0Z" transform="translate(-331.275 -253.329)"/>
      </g>
    </g>
  </g>
</svg>
