<svg id="SVGRepo_iconCarrier" xmlns="http://www.w3.org/2000/svg" width="34.519" height="37.657" viewBox="0 0 34.519 37.657">
  <g id="Group_453" data-name="Group 453">
    <g id="Group_452" data-name="Group 452">
      <g id="Group_451" data-name="Group 451">
        <path id="Path_584" data-name="Path 584" d="M55.589,6.975,52.715,2.663V1.569A1.569,1.569,0,0,0,51.146,0h-25.1a1.569,1.569,0,0,0-1.569,1.569V2.663L21.6,6.975a1.569,1.569,0,0,0-.264.87v3.138a4.7,4.7,0,0,0,1.569,3.5v21.6a1.569,1.569,0,0,0,1.569,1.569H52.715a1.569,1.569,0,0,0,1.569-1.569v-21.6a4.7,4.7,0,0,0,1.569-3.5V7.845A1.568,1.568,0,0,0,55.589,6.975ZM24.472,8.32l2.875-4.312a1.569,1.569,0,0,0,.264-.87H49.577a1.569,1.569,0,0,0,.264.87L52.715,8.32v2.663a1.572,1.572,0,0,1-.675,1.284c-.039.019-.078.039-.117.062a1.571,1.571,0,0,1-.652.217c-.042,0-.083.006-.126.006a1.578,1.578,0,0,1-1.569-1.569V7.845H46.439v3.138a1.569,1.569,0,0,1-3.138,0V7.845H40.163v3.138a1.569,1.569,0,1,1-3.138,0V7.845H33.886v3.138a1.569,1.569,0,1,1-3.138,0V7.845H27.61v3.138a1.578,1.578,0,0,1-1.569,1.569c-.042,0-.084,0-.126-.006a1.571,1.571,0,0,1-.652-.217c-.039-.023-.078-.043-.117-.062a1.573,1.573,0,0,1-.675-1.284V8.32Zm12.552,26.2H32.317V23.536h4.707Zm14.121,0H40.163V21.967A1.569,1.569,0,0,0,38.593,20.4H30.748a1.569,1.569,0,0,0-1.569,1.569V34.519H26.041V15.69a4.687,4.687,0,0,0,3.138-1.2,4.693,4.693,0,0,0,6.276,0,4.693,4.693,0,0,0,6.276,0,4.693,4.693,0,0,0,6.276,0,4.687,4.687,0,0,0,3.138,1.2V34.519Z" transform="translate(-21.334)"/>
        <rect id="Rectangle_338" data-name="Rectangle 338" width="6.631" height="7.957" transform="translate(21.326 21.45)"/>
      </g>
    </g>
  </g>
</svg>
