<?xml version="1.0" encoding="UTF-8"?>
<svg id="Layer_1" data-name="Layer 1" xmlns="http://www.w3.org/2000/svg" viewBox="0 0 1219.3 448.61">
  <path d="M274.4,260.42c0-60.81,47.21-106.82,109.62-106.82s109.62,46.01,109.62,106.82-47.21,106.82-109.62,106.82-109.62-46.01-109.62-106.82ZM440.03,260.42c0-32.01-23.6-56.41-56.01-56.41s-56.01,24.4-56.01,56.41,24,56.41,56.01,56.41,56.01-24.4,56.01-56.41Z"/>
  <path d="M508.03,97.2c0-18.4,14.4-32.4,32.81-32.4s32.8,14,32.8,32.4-14.4,32.4-32.8,32.4-32.81-14-32.81-32.4ZM514.84,158.41h52.01v204.03h-52.01v-204.03Z"/>
  <path d="M600.45,158.41h52.01v10.37c0,8.41,10.51,12.32,15.94,5.9,9.38-11.1,23.62-21.07,44.47-21.07,29.2,0,52.41,13.2,64.81,35.21,16-22.8,40.01-35.21,70.01-35.21,44.81,0,74.81,30,74.81,76.01v132.82h-52.01v-117.22c0-24.8-15.6-41.21-40.01-41.21-25.6,0-42.81,16.8-42.81,42.01v116.42h-52.01v-117.22c0-24.8-16-41.21-40.01-41.21-25.6,0-43.21,16.8-43.21,42.01v116.42h-52.01v-204.03Z"/>
  <path d="M942.49,260.42c0-60.81,42.81-106.82,99.62-106.82,24.45,0,40.31,10.68,50.37,22.51,5.5,6.47,16.04,2.71,16.04-5.78v-11.93h52.01v204.03h-52.01v-24c-16.4,18-39.21,28.8-66.41,28.8-56.81,0-99.62-46.01-99.62-106.82ZM1108.51,260.42c0-32.01-24-56.41-56.41-56.41s-56.01,24.4-56.01,56.41,24,56.41,56.01,56.41,56.41-24.4,56.41-56.41Z"/>
  <path d="M181.37,153.8c-27.99-2.15-66.51,15.97-64.45,60.07.46,9.81,2.39,22.21,6.52,37.82,7.89,29.83,2.43,51.05-12.32,51.05s-17.68-17.24-15.9-29.52c3.19-22.05,15.15-54.34,15.15-91.05v-23.8h-51.59v204.03h51.59v-33.16c37.18,0,46.33-27.45,29.26-65.51-3.58-7.97-6.3-14.93-8.37-20.95-6.47-18.78,7.25-38.67,27.12-38.8.14,0,.28,0,.42,0,26.8,0,44.41,18,44.41,45.61v112.82h52.01v-127.73c0-41.99-31.97-77.66-73.84-80.88ZM124.86,215.34"/>
</svg>